<?xml version="1.0" encoding="UTF-8"?>
<svg id="Layer_1" data-name="Layer 1" xmlns="http://www.w3.org/2000/svg" viewBox="0 0 20 20">
  <defs>
    <style>
      .cls-1 {
        stroke-width: 0px;
      }
    </style>
  </defs>
  <path class="cls-1" d="M12.37,6.88s0-.07,0-.1c0-.81,0-1.63,0-2.44,0-.03,0-.06,0-.09,0-.14.08-.23.2-.29.12-.06.24-.04.35.04.03.02.06.05.08.08,1.12,1.11,2.23,2.23,3.34,3.34.73.73,1.46,1.46,2.19,2.19.02.02.04.04.06.06.13.14.13.34,0,.48-.02.02-.03.03-.05.05-1.84,1.84-3.68,3.68-5.52,5.52-.02.02-.03.03-.05.05-.11.09-.23.12-.36.07-.14-.05-.21-.16-.22-.3,0-.03,0-.06,0-.09,0-.71,0-1.43,0-2.14,0-.03,0-.07,0-.11-.04-.01-.07-.02-.11-.03-.32-.06-.65-.1-.97-.12-.4-.03-.8-.04-1.2-.03-.39.01-.78.04-1.17.09-1.42.18-2.77.58-4.07,1.17-1.04.47-2.02,1.04-2.95,1.7-.03.02-.05.04-.08.05-.12.08-.27.08-.39,0-.12-.08-.17-.22-.13-.36.06-.22.13-.44.22-.65.24-.59.54-1.14.9-1.66.5-.75,1.09-1.43,1.74-2.05.74-.71,1.56-1.33,2.43-1.89.99-.63,2.03-1.15,3.11-1.6.83-.35,1.69-.64,2.55-.9.03,0,.07-.01.1-.04ZM13.08,14.65s.06-.05.09-.07c1.54-1.54,3.07-3.07,4.61-4.61.01-.01.03-.03.04-.04.01-.01.02-.03.03-.04-.03-.03-.06-.06-.09-.09-1.54-1.54-3.07-3.07-4.61-4.61-.02-.02-.04-.04-.06-.05,0,0-.02-.02-.04-.01,0,.03,0,.06,0,.09,0,.62,0,1.24,0,1.86,0,.03,0,.05,0,.08,0,.16-.1.28-.26.33,0,0-.02,0-.02,0-.21.06-.43.12-.64.19-1.1.34-2.17.74-3.21,1.24-.9.43-1.76.92-2.58,1.49-.83.58-1.6,1.24-2.29,1.99-.48.52-.9,1.08-1.27,1.68-.13.22-.26.45-.37.68-.01.02-.03.05-.03.08.04,0,.06-.03.08-.04.24-.14.48-.29.73-.43,1.3-.74,2.68-1.3,4.14-1.65.6-.14,1.21-.25,1.82-.31.29-.03.57-.05.86-.06.43-.02.86-.01,1.29.02.38.03.76.07,1.13.14.13.03.26.06.39.09.04.01.09.02.12.06.08.08.14.17.14.29,0,.05,0,.1,0,.15,0,.49,0,.99,0,1.48v.1Z"/>
</svg>