<?xml version="1.0" encoding="UTF-8"?>
<svg id="Layer_1" data-name="Layer 1" xmlns="http://www.w3.org/2000/svg" viewBox="0 0 20 20">
  <defs>
    <style>
      .cls-1 {
        stroke-width: 0px;
      }
    </style>
  </defs>
  <path class="cls-1" d="M15.16,12.69c0,.81,0,1.58,0,2.34,0,.41-.14.55-.56.55-4.35,0-8.71,0-13.06,0-.42,0-.56-.14-.56-.57,0-3.33,0-6.66,0-9.99,0-.46.13-.59.59-.59,4.33,0,8.67,0,13,0,.47,0,.6.13.6.6,0,.75,0,1.5,0,2.3.1-.08.16-.14.23-.19.95-.84,1.89-1.68,2.84-2.52.13-.12.27-.21.46-.17.22.05.34.22.34.51,0,1.3,0,2.6,0,3.9,0,2.05,0,4.1,0,6.16,0,.03,0,.06,0,.09,0,.2-.06.36-.26.45-.2.09-.36.02-.51-.11-.55-.49-1.1-.98-1.65-1.47-.42-.38-.85-.75-1.27-1.13-.05-.04-.1-.08-.18-.14ZM1.85,5.29v9.41h12.44V5.29H1.85ZM18.15,14.18V5.84s-.06.04-.08.06c-.94.83-1.88,1.67-2.82,2.51-.06.05-.09.16-.09.24,0,.9,0,1.8,0,2.7,0,.1.06.22.13.29.37.34.74.67,1.12,1,.57.51,1.14,1.01,1.74,1.54Z"/>
  <path class="cls-1" d="M7.85,10.43c0,.51,0,.99,0,1.48,0,.08,0,.16,0,.24-.01.25-.19.43-.42.43-.24,0-.43-.18-.44-.43,0-.49,0-.97,0-1.46,0-.08,0-.15,0-.25-.38,0-.73,0-1.09,0-.19,0-.37,0-.56,0-.31,0-.51-.17-.5-.44,0-.25.2-.42.49-.42.47,0,.95,0,1.42,0,.07,0,.14,0,.24,0,0-.46,0-.9,0-1.34,0-.12,0-.24,0-.36.01-.26.19-.44.43-.44.24,0,.42.18.43.44,0,.49,0,.97,0,1.46,0,.07,0,.14,0,.24.3,0,.59,0,.88,0,.26,0,.52,0,.77,0,.3,0,.49.17.49.42,0,.25-.19.43-.48.43-.54,0-1.09,0-1.66,0Z"/>
</svg>