<?xml version="1.0" encoding="UTF-8"?>
<svg id="Layer_1" data-name="Layer 1" xmlns="http://www.w3.org/2000/svg" viewBox="0 0 20 20">
  <defs>
    <style>
      .cls-1 {
        stroke-width: 0px;
      }
    </style>
  </defs>
  <path class="cls-1" d="M9.4,14.13v-.12c0-3.95,0-7.89,0-11.84,0-.08,0-.16.02-.24.07-.29.33-.47.64-.44.28.03.51.25.53.55,0,.05,0,.09,0,.14,0,3.94,0,7.89,0,11.83,0,.04,0,.08,0,.14.03-.02.04-.03.06-.04,0,0,.02-.02.03-.03.98-.98,1.97-1.96,2.95-2.95.06-.06.12-.12.18-.18.23-.24.63-.24.85,0,.23.24.23.61,0,.85-.41.42-.83.83-1.25,1.25-.71.71-1.42,1.42-2.14,2.13-.28.28-.57.57-.85.85-.22.21-.56.23-.8.04-.03-.03-.06-.05-.09-.08-1.39-1.39-2.77-2.77-4.16-4.16-.15-.15-.23-.31-.21-.52.02-.23.14-.39.35-.48.21-.1.42-.07.61.07.04.03.07.06.1.1,1.03,1.03,2.05,2.05,3.08,3.08.03.03.05.06.07.09.01,0,.02-.01.04-.02Z"/>
  <path class="cls-1" d="M9.99,17.33c1.69,0,3.38,0,5.06,0,.26,0,.47.14.57.36.16.37-.09.78-.49.82-.04,0-.08,0-.12,0-3.34,0-6.69,0-10.03,0-.11,0-.23-.01-.33-.06-.25-.12-.38-.4-.31-.67.06-.26.3-.45.57-.45.52,0,1.04,0,1.57,0,1.17,0,2.35,0,3.52,0Z"/>
</svg>