<?xml version="1.0" encoding="UTF-8"?>
<svg id="Layer_1" data-name="Layer 1" xmlns="http://www.w3.org/2000/svg" viewBox="0 0 20 20">
  <defs>
    <style>
      .cls-1 {
        stroke-width: 0px;
      }
    </style>
  </defs>
  <path class="cls-1" d="M10.01.91c1.5,1.22,2.98,2.43,4.46,3.65,1.17.96,2.35,1.92,3.52,2.88.13.1.19.21.18.38,0,3.68,0,7.36,0,11.04,0,.08,0,.16-.01.24h-5.49v-6.52h-5.38v6.51H1.83c0-.09-.01-.18-.01-.27,0-3.66,0-7.33,0-10.99,0-.16.04-.28.17-.39C4.63,5.29,7.26,3.13,9.9.98c.03-.02.06-.04.11-.07Z"/>
</svg>