<?xml version="1.0" encoding="UTF-8"?>
<svg id="Layer_1" data-name="Layer 1" xmlns="http://www.w3.org/2000/svg" viewBox="0 0 20 20">
  <defs>
    <style>
      .cls-1 {
        stroke-width: 0px;
      }
    </style>
  </defs>
  <path class="cls-1" d="M12.67,7.14c1.49,0,2.98-.02,4.47,0,1.3.02,2.25,1.13,2.07,2.41-.33,2.36-.67,4.72-1.02,7.09-.18,1.25-1,1.97-2.24,1.97-4.78,0-9.55,0-14.33,0-.6,0-.86-.26-.86-.86,0-3.25,0-6.5,0-9.76,0-.6.26-.85.87-.85,1.13,0,2.27-.01,3.4,0,.29,0,.47-.08.64-.32,1.25-1.68,2.51-3.36,3.76-5.04.24-.32.53-.44.93-.38,1.1.17,1.88,1.03,1.89,2.15,0,1.18,0,2.35,0,3.58.16,0,.28,0,.41,0ZM9.99,3.46c-1.1,1.46-2.2,2.92-3.28,4.39-.09.13-.17.3-.17.45,0,2.89,0,5.79,0,8.68,0,.05,0,.11.02.2h.36c2.98,0,5.96,0,8.95,0,.63,0,.84-.18.93-.81.33-2.26.66-4.52.99-6.78.1-.72-.17-1.03-.9-1.03-1.72,0-3.43,0-5.15,0-.65,0-.89-.24-.89-.89,0-1.32,0-2.65,0-3.97,0-.33-.08-.62-.42-.81-.15.19-.29.38-.43.56ZM5.06,17.16v-8.58h-2.82v8.58h2.82Z"/>
</svg>