<?xml version="1.0" encoding="UTF-8"?>
<svg id="Layer_1" data-name="Layer 1" xmlns="http://www.w3.org/2000/svg" viewBox="0 0 20 20">
  <defs>
    <style>
      .cls-1 {
        stroke-width: 0px;
      }
    </style>
  </defs>
  <path class="cls-1" d="M8.56,1c.18.02.36.04.54.07,2.53.39,4.37,1.75,5.33,4.11,1.03,2.52.61,4.89-1.13,7-.06.08-.13.15-.2.23.09.1.18.2.27.3,1.67,1.83,3.35,3.66,5.03,5.48.15.16.2.33.13.53-.06.17-.19.24-.36.27-.19.03-.32-.07-.44-.2-.7-.77-1.41-1.54-2.11-2.31-1.03-1.12-2.06-2.25-3.09-3.37-.03-.03-.05-.07-.05-.07-.47.28-.91.57-1.37.8-1,.49-2.07.69-3.18.64-1.21-.05-2.32-.4-3.34-1.06-1.02-.65-1.81-1.52-2.36-2.59-.43-.82-.67-1.69-.73-2.62,0-.04-.02-.08-.03-.12,0-.23,0-.47,0-.7,0-.05.02-.09.03-.14.04-.62.16-1.23.39-1.81.99-2.49,2.8-3.96,5.45-4.38.18-.03.36-.05.54-.07.23,0,.47,0,.7,0ZM14.05,7.75c-.01-3.23-2.64-5.85-5.85-5.84-3.23.01-5.85,2.64-5.84,5.85.01,3.23,2.64,5.85,5.85,5.84,3.23-.01,5.85-2.64,5.84-5.85Z"/>
</svg>