<?xml version="1.0" encoding="UTF-8"?>
<svg id="Layer_1" data-name="Layer 1" xmlns="http://www.w3.org/2000/svg" viewBox="0 0 20 20">
  <defs>
    <style>
      .cls-1 {
        stroke-width: 0px;
      }
    </style>
  </defs>
  <path class="cls-1" d="M6.08,10.01c0,.56-.44.98-1,.98-.56,0-.98-.44-.98-1,0-.56.44-.98,1-.98.56,0,.98.44.98,1Z"/>
  <path class="cls-1" d="M10.01,10.99c-.56,0-.99-.41-1-.98,0-.56.41-.99.98-1,.56,0,.99.41,1,.98,0,.56-.41.99-.97,1Z"/>
  <path class="cls-1" d="M13.92,9.96c.02-.56.47-.97,1.03-.95.56.02.97.47.95,1.03-.02.56-.47.97-1.03.95-.56-.02-.97-.47-.95-1.03Z"/>
</svg>