<?xml version="1.0" encoding="UTF-8"?>
<svg id="Layer_1" data-name="Layer 1" xmlns="http://www.w3.org/2000/svg" viewBox="0 0 20 20">
  <defs>
    <style>
      .cls-1 {
        stroke-width: 0px;
      }
    </style>
  </defs>
  <path class="cls-1" d="M9,5c0-.57.45-1,1.02-.99.57,0,1,.45.99,1.02,0,.57-.45,1-1.02.99-.57,0-1-.45-.99-1.02Z"/>
  <path class="cls-1" d="M9,9.96c.02-.57.47-.99,1.04-.96.57.02.99.47.96,1.04-.02.57-.47.99-1.04.96-.57-.02-.99-.47-.96-1.04Z"/>
  <path class="cls-1" d="M9,14.97c0-.57.45-1,1.02-.99.57,0,1,.45.99,1.02,0,.57-.45,1-1.02.99-.57,0-1-.45-.99-1.02Z"/>
</svg>