<?xml version="1.0" encoding="UTF-8"?>
<svg id="Layer_1" data-name="Layer 1" xmlns="http://www.w3.org/2000/svg" viewBox="0 0 40 40">
  <defs>
    <style>
      .cls-1 {
        stroke-width: 0px;
      }
    </style>
  </defs>
  <path class="cls-1" d="M25.98,13.03c0,1.99,0,3.98,0,5.96,0,1.72-.63,3.19-1.87,4.37-1.23,1.17-2.72,1.72-4.42,1.63-2.69-.14-4.91-2.01-5.54-4.63-.1-.43-.15-.86-.15-1.3,0-4.04-.04-8.09.01-12.13.03-2.54,1.29-4.4,3.61-5.43,3.44-1.53,7.36.48,8.23,4.14.11.46.15.92.15,1.39,0,2,0,3.99,0,5.99h-.02Z"/>
  <path class="cls-1" d="M6.02,19.02h3.38c0,.14.01.28.02.42.16,3.17,1.55,5.7,4.06,7.62,1.05.8,2.22,1.36,3.48,1.73,1.27.36,2.56.5,3.88.4,1.83-.15,3.52-.69,5.07-1.69,2.34-1.51,3.87-3.61,4.48-6.35.14-.64.21-1.29.22-1.95,0-.05,0-.1,0-.16h3.39c0,.2,0,.41,0,.61-.13,2.45-.89,4.68-2.27,6.7-1.56,2.3-3.64,3.98-6.18,5.1-1.1.48-2.24.81-3.42.99-.11.02-.12.06-.12.15,0,2.08,0,4.17,0,6.25,0,.05,0,.1,0,.17h-4c0-.05,0-.1,0-.15,0-2.09,0-4.18,0-6.26,0-.1-.03-.14-.13-.16-1.58-.25-3.08-.76-4.49-1.51-1.64-.88-3.07-2.03-4.27-3.47-1.25-1.5-2.15-3.18-2.67-5.06-.29-1.06-.45-2.14-.45-3.24,0-.03,0-.06,0-.1,0,0,0-.01.01-.03Z"/>
</svg>