<?xml version="1.0" encoding="UTF-8"?>
<svg id="Layer_1" data-name="Layer 1" xmlns="http://www.w3.org/2000/svg" viewBox="0 0 20 20">
  <defs>
    <style>
      .cls-1 {
        stroke-width: 0px;
      }
    </style>
  </defs>
  <path class="cls-1" d="M18.31,15.63c-.01.1-.02.2-.04.3-.03.22-.12.41-.26.58-.14.17-.32.22-.53.22-.65,0-1.31.02-1.96.02-1,0-2.01,0-3.01,0-.03,0-.05,0-.08,0-.04.19-.06.38-.11.55-.24.87-.8,1.45-1.67,1.64-1.42.31-2.49-.67-2.69-1.77-.02-.11-.04-.22-.05-.34,0-.07-.03-.09-.1-.09-.47,0-.94,0-1.41,0-1.13,0-2.26-.01-3.38-.02-.08,0-.16,0-.25,0-.29-.01-.48-.18-.6-.43-.11-.22-.13-.46-.14-.71-.01-.46.03-.9.23-1.32.14-.3.39-.51.64-.72.17-.14.34-.29.51-.44.34-.3.53-.69.69-1.11.23-.61.37-1.24.46-1.88.14-1.04.3-2.08.59-3.1.19-.69.48-1.33.93-1.9.55-.7,1.25-1.18,2.07-1.51.13-.05.26-.1.4-.14.09-.02.09-.07.07-.14-.04-.17-.1-.34-.11-.51-.05-.92.55-1.66,1.46-1.8.01,0,.03,0,.04-.01.11,0,.22,0,.33,0,.02,0,.03.01.05.02.45.07.82.29,1.1.64.37.47.45.99.28,1.56-.06.2-.05.2.15.28.3.12.62.24.9.4,1.22.68,1.98,1.71,2.36,3.04.3,1.05.46,2.13.61,3.22.09.68.25,1.34.51,1.98.19.46.46.86.86,1.17.18.14.35.29.52.44.34.29.52.67.59,1.11.02.17.04.33.05.5v.28ZM17.19,15.62c.03-.22,0-.57-.1-.81-.03-.07-.07-.14-.13-.19-.14-.13-.28-.25-.43-.36-.57-.44-1.01-.99-1.27-1.66-.22-.56-.4-1.14-.5-1.74-.1-.59-.17-1.18-.26-1.77-.11-.67-.24-1.33-.44-1.97-.35-1.11-1.02-1.93-2.11-2.4-.9-.38-1.83-.43-2.77-.24-1.46.3-2.43,1.17-2.88,2.6-.3.94-.47,1.92-.58,2.91-.09.82-.28,1.62-.56,2.4-.21.58-.51,1.11-.97,1.54-.25.23-.51.43-.76.65-.07.06-.13.15-.17.23-.11.26-.1.55-.13.83h14.06ZM11.29,16.76h-2.25c.02.62.56,1.11,1.12,1.11.64,0,1.12-.57,1.13-1.11ZM10.18,3.25c.24.03.56-.3.55-.55-.02-.32-.26-.58-.57-.57-.3,0-.55.26-.54.57,0,.3.27.56.57.55Z"/>
</svg>